<?xml version="1.0" encoding="utf-8"?>
<!-- Generator: Adobe Illustrator 17.1.0, SVG Export Plug-In . SVG Version: 6.00 Build 0)  -->
<!DOCTYPE svg PUBLIC "-//W3C//DTD SVG 1.1 Tiny//EN" "http://www.w3.org/Graphics/SVG/1.1/DTD/svg11-tiny.dtd">
<svg version="1.1" baseProfile="tiny" id="圖層_1"
	 xmlns="http://www.w3.org/2000/svg" xmlns:xlink="http://www.w3.org/1999/xlink" x="0px" y="0px" viewBox="0 0 140 140"
	 xml:space="preserve">
<g>
	<path fill="#FFFFFF" d="M71,1C46,1,25.7,21.3,25.7,46.3c0,2.6,0.2,5.1,0.6,7.5c2.6-7.9,9.5-13.7,18-14.6c1.3-5.6,4.3-10.6,8.6-14.6
		c5.3-4.8,12.1-7.4,19.2-7.4c6,0,11.8,1.8,16.6,5.3c4.1,2.9,7.2,6.8,9.3,11.2c5.1,1,9.7,3.5,13.2,7.3c2.1,2.3,3.8,4.9,4.9,7.8
		c0-0.9,0.1-1.7,0.1-2.6C116.3,21.3,96,1,71,1z"/>
	<path fill="#FFFFFF" d="M95.2,37.6C95.2,37.5,95.2,37.5,95.2,37.6c-0.1,0-0.3,0-0.4,0c-3.5,0-7,1-10,3c-0.9,0.6-2,0.3-2.5-0.6
		c-0.5-0.9-0.3-2.1,0.6-2.7c3.2-2.1,6.8-3.2,10.5-3.5c-4.2-7.4-12.1-12.3-21.2-12.3c-0.2,0-2.5,0.1-2.5,0.1
		c-10,0.6-18.4,7.4-20.6,16.2c0,0,0,0,0,0c0,0,0,0,0,0c-0.4,1.5-0.6,3-0.6,4.5c0,2.2,0.4,4.3,1.2,6.3c0.4,0.9-0.1,2-1,2.3
		C48.4,51,48.2,51,48,51c-0.7,0-1.4-0.4-1.7-1.2c-0.8-2.1-1.2-4.3-1.3-6.5c-8.7,0.8-15.5,8.1-15.5,17c0,3,0.8,5.8,2.1,8.2
		c0,0,0,0.1,0,0.1c0.1,0.2,0.3,0.4,0.4,0.6c6.4,10.9,17.3,18.9,30.2,21.4V73.4h-4.4c-0.7,0-1.3-0.4-1.5-1c-0.3-0.6-0.1-1.3,0.4-1.8
		l13.8-13.8c0.6-0.6,1.7-0.6,2.3,0l13.8,13.8c0.5,0.5,0.6,1.2,0.4,1.8c-0.3,0.6-0.9,1-1.5,1h-4.4v17c13-2.9,24-11.5,30.1-23
		c0,0,0,0,0,0c0.4-0.6,0.7-1.3,1-2c0,0,0,0,0,0c1.1-2.4,1.6-5.1,1.6-7.9C113.7,47,105.5,38.4,95.2,37.6z"/>
</g>
<g>
	<path fill="#FFFFFF" d="M18.8,131.7c1.7,0,3.3,0,4.7,0c1.4,0,2.8,0,4-0.1c1.2,0,2.4-0.1,3.4-0.1c1,0,2-0.1,3-0.2v3.5
		c-1-0.1-2-0.1-3-0.2c-1.1,0-2.2-0.1-3.4-0.1c-1.2,0-2.6-0.1-4-0.1c-1.4,0-3,0-4.8,0c-3.5,0-6.4,0-8.9,0.1c-2.5,0.1-4.6,0.1-6.5,0.3
		v-3.5c1.6,0.1,3.4,0.2,5.4,0.2s4.3,0.1,7,0.1v-17c0-1.4,0-2.6,0-3.6c0-1,0-1.9-0.1-2.5c0-0.7-0.1-1.2-0.1-1.7c0-0.4-0.1-0.8-0.1-1
		c0.6,0.1,1.2,0.2,2,0.2c0.7,0,1.4,0.1,2.1,0.1c0.3,0,0.5,0.1,0.5,0.2c0,0.1-0.1,0.3-0.4,0.5c-0.2,0.1-0.3,0.5-0.5,1.1
		c-0.1,0.6-0.2,1.3-0.2,2.1v4.6h4.6c1.6,0,3,0,4.2-0.1c1.2,0,2.3-0.1,3.2-0.2v3.5c-0.9-0.1-2-0.2-3.2-0.2c-1.2,0-2.6-0.1-4.2-0.1
		h-4.6V131.7z"/>
	<path fill="#FFFFFF" d="M42.5,117.9c-0.3,0.6-0.5,1.1-0.7,1.5c-0.2,0.4-0.4,0.8-0.6,1.2c-0.2,0.4-0.4,0.8-0.6,1.1
		c-0.2,0.4-0.4,0.7-0.7,1.1c-0.3-0.4-0.5-0.8-0.8-1c-0.3-0.3-0.6-0.5-1.1-0.9c0.4-0.6,0.8-1.2,1.3-2s0.8-1.5,1.2-2.3
		c0.4-0.8,0.8-1.6,1.1-2.4c0.4-0.8,0.7-1.6,1-2.3c0.3-0.8,0.6-1.5,0.8-2.1c0.2-0.6,0.4-1.2,0.6-1.7c0.2-0.5,0.3-1,0.4-1.4
		c0.1-0.5,0.2-0.9,0.2-1.4c0.6,0.3,1.1,0.5,1.7,0.7c0.5,0.2,1.1,0.4,1.6,0.6c0.2,0.1,0.4,0.1,0.4,0.2s-0.1,0.2-0.3,0.3
		c-0.2,0.1-0.5,0.5-0.9,1.3c-0.4,0.7-1,2-1.8,3.6v24.5h-3c0.1-1,0.2-2.2,0.3-3.6c0.1-1.4,0.1-2.7,0.1-4V117.9z M58.7,108.8
		c2.2,0,4.1,0,5.7-0.1c1.5-0.1,2.9-0.1,4.2-0.3v2.8c-1.3-0.1-2.7-0.2-4.2-0.3c-1.5-0.1-3.4-0.1-5.7-0.1v1.8c1.2,0,2.2,0,3.1,0
		c0.9,0,1.6,0,2.2,0c0.6,0,1.2,0,1.6-0.1c0.5,0,0.9,0,1.4-0.1c-0.1,0.2-0.2,0.5-0.2,0.9c0,0.4-0.1,0.8-0.1,1.3v5.1
		c0,0.4,0,0.8,0.1,1.2c0,0.4,0.1,0.7,0.2,1c-0.4,0-0.8-0.1-1.2-0.1c-0.4,0-0.9,0-1.4-0.1c0.7,0.5,1.3,1.1,2,1.8
		c0.7,0.6,1.4,1.2,2,1.8l-2.2,1.5c-0.4-0.5-0.8-1.1-1.3-1.6l-1,0v2.3c1.1,0,2.2-0.1,3.2-0.1c1-0.1,1.7-0.2,2.1-0.2v2.6
		c-0.4,0-1.1-0.1-2.1-0.1c-1,0-2-0.1-3.2-0.1v4.8c0,0.4,0,0.6-0.1,0.9c-0.1,0.2-0.3,0.5-0.6,0.7c-0.3,0.2-0.7,0.4-1.3,0.5
		c-0.6,0.2-1.4,0.3-2.4,0.5c0-0.5-0.1-1-0.3-1.4c-0.2-0.4-0.4-1-0.8-1.6c0.7,0.1,1.2,0.1,1.6,0.1c0.4,0,0.7,0,0.9-0.1
		c0.2-0.1,0.3-0.2,0.4-0.3c0-0.2,0.1-0.4,0.1-0.6v-3.5h-8.6c-0.7,0-1.3,0-2,0c-0.7,0-1.3,0-1.8,0c-0.6,0-1.1,0-1.5,0.1
		c-0.4,0-0.8,0.1-1,0.1v-2.6c0.5,0.1,1.4,0.2,2.5,0.3c1.2,0.1,2.4,0.1,3.8,0.1h8.6v-2.2l-5.8,0.1c-1.1,0-2.1,0.1-2.9,0.1
		c-0.8,0-1.5,0.1-2.1,0.1c-0.6,0-1.1,0.1-1.6,0.2c-0.5,0.1-0.9,0.1-1.4,0.2c0-0.5-0.1-0.9-0.2-1.3c-0.1-0.4-0.3-0.9-0.5-1.4
		c0.4,0,0.9,0.1,1.5,0.1c0.5,0,1.2,0.1,2,0.1c0.8,0,1.6,0,2.6,0c1,0,2.1,0,3.4,0v-1.9H52c-0.7,0-1.5,0-2.1,0.1
		c-0.7,0-1.3,0.1-1.9,0.1c0.1-0.3,0.2-0.6,0.2-1c0-0.4,0.1-0.8,0.1-1.2v-5.1c0-0.4,0-0.8-0.1-1.2c-0.1-0.4-0.1-0.7-0.2-1
		c0.5,0,0.9,0,1.4,0.1c0.5,0,1,0,1.6,0.1c0.6,0,1.3,0,2.2,0c0.8,0,1.8,0,3,0v-1.8c-1.9,0-3.5,0.1-4.8,0.1c-1.3,0-2.5,0.1-3.6,0.2
		v-2.8c1.1,0.1,2.4,0.2,3.7,0.2c1.3,0,2.9,0.1,4.7,0.1c0-0.7,0-1.3-0.1-1.9c0-0.6-0.1-1.2-0.3-1.9c0.6,0.1,1.2,0.2,1.8,0.2
		c0.6,0,1.2,0,1.6-0.1c0.2,0,0.3,0,0.3,0.1c0,0.1-0.1,0.3-0.3,0.4c-0.3,0.2-0.4,0.4-0.5,0.6c-0.1,0.2-0.1,0.5-0.1,0.9V108.8z
		 M56.2,114.6h-5.5v1.8h5.5V114.6z M56.2,118.1h-5.5v1.8h5.5V118.1z M53.6,134.8c-0.3-0.7-0.6-1.4-1-2c-0.4-0.6-0.8-1.2-1.3-1.8
		l2.5-1.1c0.5,0.6,0.9,1.1,1.3,1.7c0.4,0.6,0.8,1.2,1.2,1.9L53.6,134.8z M58.7,116.4h5.5v-1.8h-5.5V116.4z M58.7,119.8h5.5v-1.8
		h-5.5V119.8z M58.7,123.8l4.6,0c-0.4-0.4-0.8-0.7-1.2-1.1l1.4-0.8h-4.8V123.8z"/>
	<path fill="#FFFFFF" d="M79.3,130.3c-0.6,1.3-1.1,2.5-1.6,3.6c-0.5,1.1-1,2.1-1.4,3l-3-1.5c0.9-1,1.5-1.9,2-2.9
		c0.5-0.9,0.9-2,1.3-3.2L79.3,130.3z M78.2,125.7v2.2h-2.8c0.1-0.6,0.2-1.2,0.2-1.6c0-0.5,0-1,0-1.6v-14.5c0-0.5,0-1-0.1-1.4
		c0-0.5-0.1-0.9-0.2-1.2c0.6,0.1,1.3,0.2,2.1,0.3c0.9,0.1,1.9,0.1,3.2,0.1c1.5,0,2.6,0,3.4-0.1c0.8-0.1,1.4-0.1,1.8-0.3
		c-0.1,0.3-0.2,0.7-0.2,1.2c0,0.5-0.1,0.9-0.1,1.5v14.1c0,0.6,0,1.1,0,1.6c0,0.5,0.1,1.1,0.2,1.7h-2.8v-1.7H78.2z M83.1,115.7V110
		h-4.9v5.7H83.1z M83.1,123.7v-5.8h-4.9v5.8H83.1z M83.7,136.1c0-0.4,0-0.8-0.1-1.2c0-0.5-0.1-1-0.2-1.5c-0.1-0.5-0.2-1-0.2-1.5
		s-0.2-0.9-0.3-1.3l2.6-0.5c0.1,0.4,0.2,0.9,0.3,1.4c0.1,0.5,0.2,1,0.3,1.5c0.1,0.5,0.2,1,0.3,1.5c0.1,0.5,0.2,0.8,0.3,1.1
		L83.7,136.1z M94.7,109.6c-0.1,0.8-0.2,1.6-0.5,2.4c-0.2,0.8-0.5,1.6-0.9,2.4c-0.4,0.8-1,1.6-1.6,2.3c-0.6,0.7-1.4,1.4-2.4,2.1
		c0.7,0.1,1.6,0.2,2.6,0.2c1,0,2.1,0.1,3.5,0.1c1.5,0,2.8,0,3.9-0.1c1-0.1,2-0.1,2.7-0.3c-0.1,0.6-0.1,1.3-0.2,2.1
		c-0.1,0.8-0.1,1.7-0.1,2.5c0,0.9,0,1.7,0.1,2.5c0,0.8,0.1,1.5,0.2,2.1c-0.7-0.1-1.7-0.2-2.7-0.2c-1.1,0-2.4-0.1-3.9-0.1
		c-1.5,0-2.9,0-3.9,0.1c-1.1,0-2,0.1-2.7,0.2c0.1-0.6,0.2-1.3,0.2-2.1c0-0.8,0.1-1.7,0.1-2.6c0-0.7,0-1.5-0.1-2.2
		c0-0.7-0.1-1.4-0.2-2c0,0-0.1,0.1-0.2,0.1c-0.1,0-0.1,0.1-0.2,0.1c-0.2-0.4-0.5-0.8-0.9-1.1c-0.4-0.3-0.8-0.6-1.4-0.8
		c0.9-0.3,1.6-0.7,2.3-1.3c0.7-0.6,1.3-1.2,1.8-1.9c0.5-0.7,0.9-1.5,1.2-2.3c0.3-0.8,0.5-1.6,0.6-2.3c-0.9,0-1.8,0-2.5,0.1
		c-0.8,0.1-1.3,0.1-1.6,0.2v-3c0.2,0,0.5,0.1,1.1,0.1c0.5,0,1.1,0.1,1.8,0.1c0.7,0,1.4,0.1,2.1,0.1c0.7,0,1.4,0,2,0
		c0.7,0,1.5,0,2.3,0c0.8,0,1.5-0.1,2.3-0.1c0.7,0,1.3-0.1,1.9-0.1c0.6,0,1-0.1,1.2-0.1c0,0.5-0.1,1.1-0.2,1.8
		c-0.1,0.7-0.2,1.5-0.2,2.2c-0.1,0.8-0.2,1.5-0.3,2.2c-0.1,0.7-0.2,1.3-0.3,1.9c-0.1,0.5-0.2,1-0.4,1.3c-0.2,0.4-0.5,0.7-0.8,0.9
		c-0.4,0.2-0.9,0.4-1.6,0.5c-0.7,0.1-1.5,0.2-2.6,0.3c0-0.4-0.1-0.9-0.3-1.5c-0.2-0.6-0.5-1.1-0.9-1.6c1.3,0.1,2.3,0.1,2.8,0
		c0.6-0.2,0.9-0.4,1.1-0.8c0.1-0.3,0.1-0.6,0.2-1c0.1-0.4,0.2-0.8,0.2-1.2c0.1-0.4,0.1-0.9,0.1-1.3c0-0.4,0.1-0.8,0.1-1.1H94.7z
		 M91.3,135.5c-0.1-0.8-0.3-1.6-0.5-2.6c-0.2-1-0.4-1.8-0.7-2.6l2.9-0.4c0.1,0.4,0.2,0.8,0.3,1.3c0.1,0.5,0.3,0.9,0.4,1.4
		s0.3,0.9,0.4,1.4c0.1,0.5,0.3,0.9,0.4,1.2L91.3,135.5z M99,121.5h-7.5v4H99V121.5z M100.5,136.4c-0.2-0.4-0.4-0.8-0.6-1.3
		c-0.2-0.5-0.5-1-0.7-1.6c-0.2-0.5-0.5-1.1-0.7-1.6c-0.2-0.5-0.5-1-0.7-1.5l2.7-1c0.4,0.8,1,1.6,1.6,2.6c0.6,1,1.2,1.9,1.8,2.7
		L100.5,136.4z"/>
	<path fill="#FFFFFF" d="M117.5,117.6c0,1-0.1,1.9-0.1,2.7c0,0.8-0.1,1.6-0.2,2.3c1.9,0,3.5,0,4.8,0c1.4,0,2.5,0,3.5,0s1.8,0,2.5,0
		c0.7,0,1.3,0,1.8,0c0.5,0,1,0,1.4-0.1c0.4,0,0.9,0,1.3-0.1c-0.1,0.6-0.2,2.1-0.2,4.5v5.7c0,1,0,1.8,0,2.4c0,0.7,0.1,1.4,0.1,2.1
		H129v-11.8h-12.1c-0.2,1.1-0.4,2.1-0.6,3c-0.2,0.9-0.5,1.8-0.9,2.6c-0.4,0.8-0.8,1.7-1.3,2.5c-0.5,0.8-1.1,1.7-1.8,2.7
		c-0.4-0.3-0.9-0.6-1.4-0.9c-0.5-0.2-1.1-0.5-1.8-0.8c0.7-0.8,1.3-1.6,1.9-2.3s1-1.5,1.4-2.3c0.4-0.8,0.7-1.6,1-2.5
		c0.3-0.9,0.5-2,0.6-3.1c0.2-1.2,0.3-2.5,0.4-4c0.1-1.5,0.1-3.3,0.2-5.3c0-1.1,0-2.1,0-3c0-0.9,0-1.6,0-2.3c0-0.7,0-1.3-0.1-1.9
		s-0.1-1.2-0.1-1.8c0.4,0.1,0.7,0.1,1.1,0.2c0.4,0.1,0.7,0.1,1.1,0.2c0.3,0,0.6,0.1,0.9,0.1c0.3,0,0.5,0,0.6,0c0.3,0,0.5,0,0.5,0.1
		c0,0.1-0.1,0.3-0.2,0.5c-0.1,0.1-0.1,0.3-0.2,0.6c-0.1,0.3-0.1,0.7-0.2,1.3c-0.1,0.6-0.1,1.3-0.2,2.3c0,0.9-0.1,2.1-0.1,3.5h9.3
		V110c0-1,0-1.9,0-2.5c0-0.7-0.1-1.2-0.1-1.7c0.7,0.1,1.4,0.2,2.1,0.3c0.7,0.1,1.3,0.1,1.8,0.1c0.8,0,0.9,0.2,0.4,0.5
		c-0.6,0.3-0.9,0.8-0.9,1.4v6.9h4.6c0.5,0,0.9,0,1.3,0c0.4,0,0.7,0,0.9,0c0.3,0,0.5,0,0.7-0.1c0.2,0,0.4-0.1,0.6-0.1v3.1
		c-0.4-0.1-0.8-0.1-1.3-0.2c-0.5,0-1.2-0.1-2.2-0.1H117.5z"/>
</g>
</svg>
