<svg xmlns="http://www.w3.org/2000/svg" xmlns:xlink="http://www.w3.org/1999/xlink" version="1.1" id="Layer_1" x="0px" y="0px" width="100px" height="100px" viewBox="0 0 100 100" enable-background="new 0 0 100 100" xml:space="preserve">
<g>
	<path d="M49.993,4.716c-25.006,0-45.286,20.27-45.286,45.274c0,2.556,0.212,5.062,0.62,7.503c2.55-7.857,9.55-13.725,18.015-14.609   c1.326-5.574,4.312-10.646,8.616-14.553c5.272-4.784,12.1-7.419,19.226-7.419c6.012,0,11.766,1.845,16.64,5.335   c4.061,2.906,7.243,6.751,9.319,11.223c5.051,0.96,9.67,3.505,13.215,7.321c2.129,2.295,3.766,4.946,4.861,7.807   c0.049-0.861,0.074-1.731,0.074-2.607C95.293,24.985,75,4.716,49.993,4.716z" fill="#fff"/>
	<path d="M74.207,41.27c-0.005-0.013-0.012-0.025-0.018-0.039c-0.129-0.003-0.254-0.01-0.387-0.01   c-3.523-0.001-6.965,1.026-9.955,2.967c-0.854,0.559-1.979,0.274-2.502-0.637c-0.527-0.909-0.258-2.098,0.602-2.656   c3.164-2.057,6.755-3.246,10.463-3.485c-4.213-7.365-12.137-12.335-21.227-12.335c-0.225,0-2.486,0.127-2.482,0.127   c-9.958,0.575-18.403,7.449-20.608,16.248c0-0.001,0.001-0.003,0.002-0.004c0,0.002-0.001,0.003-0.002,0.005   c-0.365,1.46-0.566,2.971-0.566,4.518c0,2.159,0.39,4.282,1.154,6.312c0.352,0.928-0.118,1.967-1.047,2.316   c-0.209,0.079-0.423,0.116-0.635,0.116c-0.726,0-1.41-0.444-1.682-1.165c-0.796-2.107-1.23-4.304-1.339-6.536   C15.27,47.813,8.45,55.128,8.45,64.044c0,2.986,0.768,5.795,2.112,8.237c0.017,0.029,0.032,0.059,0.049,0.088   c0.123,0.218,0.252,0.436,0.385,0.648c6.45,10.905,17.339,18.863,30.176,21.4V77.144h-4.402c-0.663,0-1.261-0.399-1.515-1.012   c-0.253-0.613-0.113-1.317,0.355-1.786l13.784-13.784c0.64-0.641,1.678-0.641,2.318,0l13.784,13.784   c0.469,0.469,0.609,1.173,0.355,1.786c-0.254,0.612-0.852,1.012-1.515,1.012h-4.401v17.04C72.985,91.26,83.91,82.712,90.021,71.21   c0.003-0.005,0.005-0.01,0.008-0.015c0.361-0.636,0.692-1.293,0.985-1.97c0.002-0.005,0.005-0.009,0.007-0.014   c1.054-2.437,1.637-5.122,1.637-7.946C92.658,50.729,84.534,42.093,74.207,41.27z" fill="#fff"/>
</g>
</svg>
